<svg width="98" height="49" viewBox="0 0 98 49" fill="none" xmlns="http://www.w3.org/2000/svg">
<ellipse cx="48.7632" cy="24.2093" rx="46.6488" ry="16.9418" transform="rotate(-9.23588 48.7632 24.2093)" fill="#002BCC"/>
<g filter="url(#filter0_d_26_343)">
<path d="M21.3439 14.848C21.5839 14.416 21.9279 14.2 22.3759 14.2H26.7679C26.9439 14.2 27.0959 14.264 27.2239 14.392C27.3519 14.52 27.4159 14.672 27.4159 14.848V30.352C27.4159 30.528 27.3519 30.68 27.2239 30.808C27.0959 30.936 26.9439 31 26.7679 31H22.4239C22.2479 31 22.0959 30.936 21.9679 30.808C21.8399 30.68 21.7759 30.528 21.7759 30.352V22.912L20.0239 26.368C19.9759 26.48 19.8639 26.608 19.6879 26.752C19.5119 26.896 19.2879 26.968 19.0159 26.968H17.3839C17.1119 26.968 16.8879 26.896 16.7119 26.752C16.5359 26.608 16.4239 26.48 16.3759 26.368L14.6239 22.912V30.352C14.6239 30.528 14.5599 30.68 14.4319 30.808C14.3039 30.936 14.1519 31 13.9759 31H9.63188C9.45588 31 9.30388 30.936 9.17588 30.808C9.04788 30.68 8.98388 30.528 8.98388 30.352V14.848C8.98388 14.672 9.04788 14.52 9.17588 14.392C9.30388 14.264 9.45588 14.2 9.63188 14.2H14.0239C14.4719 14.2 14.8159 14.416 15.0559 14.848L18.1999 20.608L21.3439 14.848ZM41.8545 26.08H46.1985C46.3745 26.08 46.5265 26.144 46.6545 26.272C46.7825 26.4 46.8465 26.552 46.8465 26.728V30.352C46.8465 30.528 46.7825 30.68 46.6545 30.808C46.5265 30.936 46.3745 31 46.1985 31H30.9825C30.8065 31 30.6545 30.936 30.5265 30.808C30.3985 30.68 30.3345 30.528 30.3345 30.352V26.728C30.3345 26.552 30.3985 26.4 30.5265 26.272C30.6545 26.144 30.8065 26.08 30.9825 26.08H35.3745V19.12H30.9825C30.8065 19.12 30.6545 19.056 30.5265 18.928C30.3985 18.8 30.3345 18.648 30.3345 18.472V14.848C30.3345 14.672 30.3985 14.52 30.5265 14.392C30.6545 14.264 30.8065 14.2 30.9825 14.2H46.1985C46.3745 14.2 46.5265 14.264 46.6545 14.392C46.7825 14.52 46.8465 14.672 46.8465 14.848V18.472C46.8465 18.648 46.7825 18.8 46.6545 18.928C46.5265 19.056 46.3745 19.12 46.1985 19.12H41.8545V26.08ZM68.8931 30.16C68.9571 30.256 68.9891 30.36 68.9891 30.472C68.9891 30.616 68.9331 30.744 68.8211 30.856C68.7251 30.952 68.6051 31 68.4611 31H62.2691C61.9011 31 61.6131 30.872 61.4051 30.616L57.2291 25.456V30.352C57.2291 30.528 57.1651 30.68 57.0371 30.808C56.9091 30.936 56.7571 31 56.5811 31H51.6371C51.4611 31 51.3091 30.936 51.1811 30.808C51.0531 30.68 50.9891 30.528 50.9891 30.352V14.848C50.9891 14.672 51.0531 14.52 51.1811 14.392C51.3091 14.264 51.4611 14.2 51.6371 14.2H56.5811C56.7571 14.2 56.9091 14.264 57.0371 14.392C57.1651 14.52 57.2291 14.672 57.2291 14.848V19.36L61.0211 14.608C61.2611 14.336 61.5571 14.2 61.9091 14.2H67.6931C67.8371 14.2 67.9571 14.256 68.0531 14.368C68.1651 14.464 68.2211 14.584 68.2211 14.728C68.2211 14.856 68.1811 14.968 68.1011 15.064L62.4131 22L68.8931 30.16ZM75.9158 30.184C75.7078 30.728 75.3478 31 74.8358 31H70.2998C70.1558 31 70.0278 30.952 69.9158 30.856C69.8198 30.744 69.7718 30.616 69.7718 30.472L69.7958 30.328L75.0278 14.992C75.0918 14.784 75.2118 14.6 75.3878 14.44C75.5638 14.28 75.8038 14.2 76.1078 14.2H82.7798C83.0838 14.2 83.3238 14.28 83.4998 14.44C83.6758 14.6 83.7958 14.784 83.8598 14.992L89.0918 30.328L89.1158 30.472C89.1158 30.616 89.0598 30.744 88.9478 30.856C88.8518 30.952 88.7318 31 88.5878 31H84.0518C83.5398 31 83.1798 30.728 82.9718 30.184L82.3718 28.504H76.5158L75.9158 30.184ZM79.4438 18.832L77.7398 23.824H81.1478L79.4438 18.832Z" fill="#FEB640"/>
<path d="M21.3439 14.848L20.7538 14.5202L20.7514 14.5246L21.3439 14.848ZM27.2239 14.392L27.7012 13.9147L27.7012 13.9147L27.2239 14.392ZM27.2239 30.808L27.7012 31.2853L27.7012 31.2853L27.2239 30.808ZM21.7759 22.912H22.4509L21.1738 22.6068L21.7759 22.912ZM20.0239 26.368L19.4218 26.0628L19.412 26.0822L19.4035 26.1021L20.0239 26.368ZM19.6879 26.752L20.1153 27.2744L20.1153 27.2744L19.6879 26.752ZM16.7119 26.752L16.2844 27.2744L16.2844 27.2744L16.7119 26.752ZM16.3759 26.368L16.9963 26.1021L16.9877 26.0822L16.9779 26.0628L16.3759 26.368ZM14.6239 22.912L15.2259 22.6068L13.9489 22.912H14.6239ZM14.4319 30.808L13.9546 30.3307L13.9546 30.3307L14.4319 30.808ZM15.0559 14.848L15.6484 14.5246L15.6459 14.5202L15.0559 14.848ZM18.1999 20.608L17.6074 20.9314L18.1999 22.0169L18.7924 20.9314L18.1999 20.608ZM21.9339 15.1758C22.0699 14.9311 22.2024 14.875 22.3759 14.875V13.525C21.6534 13.525 21.0979 13.9009 20.7538 14.5202L21.9339 15.1758ZM22.3759 14.875H26.7679V13.525H22.3759V14.875ZM26.7679 14.875C26.7708 14.875 26.7699 14.8752 26.7661 14.8745C26.7622 14.8737 26.7572 14.8723 26.7519 14.8701C26.7467 14.8679 26.7432 14.8657 26.7416 14.8647C26.7402 14.8637 26.742 14.8647 26.7466 14.8693L27.7012 13.9147C27.4506 13.6642 27.1285 13.525 26.7679 13.525V14.875ZM26.7466 14.8693C26.7512 14.8739 26.7521 14.8756 26.7512 14.8742C26.7501 14.8727 26.748 14.8692 26.7458 14.8639C26.7436 14.8587 26.7421 14.8537 26.7414 14.8498C26.7406 14.846 26.7409 14.8451 26.7409 14.848H28.0909C28.0909 14.4873 27.9517 14.1653 27.7012 13.9147L26.7466 14.8693ZM26.7409 14.848V30.352H28.0909V14.848H26.7409ZM26.7409 30.352C26.7409 30.3549 26.7406 30.354 26.7414 30.3502C26.7421 30.3463 26.7436 30.3413 26.7458 30.3361C26.748 30.3308 26.7501 30.3273 26.7512 30.3258C26.7521 30.3244 26.7512 30.3261 26.7466 30.3307L27.7012 31.2853C27.9517 31.0347 28.0909 30.7127 28.0909 30.352H26.7409ZM26.7466 30.3307C26.742 30.3353 26.7402 30.3363 26.7416 30.3353C26.7432 30.3343 26.7467 30.3321 26.7519 30.3299C26.7572 30.3277 26.7622 30.3263 26.7661 30.3255C26.7699 30.3248 26.7708 30.325 26.7679 30.325V31.675C27.1285 31.675 27.4506 31.5358 27.7012 31.2853L26.7466 30.3307ZM26.7679 30.325H22.4239V31.675H26.7679V30.325ZM22.4239 30.325C22.421 30.325 22.4219 30.3248 22.4256 30.3255C22.4295 30.3263 22.4345 30.3277 22.4398 30.3299C22.4451 30.3321 22.4486 30.3343 22.4501 30.3353C22.4515 30.3363 22.4498 30.3353 22.4452 30.3307L21.4906 31.2853C21.7411 31.5358 22.0632 31.675 22.4239 31.675V30.325ZM22.4452 30.3307C22.4406 30.3261 22.4396 30.3244 22.4406 30.3258C22.4416 30.3273 22.4438 30.3308 22.446 30.3361C22.4482 30.3413 22.4496 30.3463 22.4504 30.3502C22.4511 30.354 22.4509 30.3549 22.4509 30.352H21.1009C21.1009 30.7127 21.24 31.0348 21.4906 31.2853L22.4452 30.3307ZM22.4509 30.352V22.912H21.1009V30.352H22.4509ZM21.1738 22.6068L19.4218 26.0628L20.6259 26.6732L22.3779 23.2172L21.1738 22.6068ZM19.4035 26.1021C19.4159 26.073 19.4223 26.0734 19.3959 26.1035C19.3712 26.1318 19.3285 26.1739 19.2604 26.2296L20.1153 27.2744C20.3144 27.1115 20.5307 26.899 20.6443 26.6339L19.4035 26.1021ZM19.2604 26.2296C19.2276 26.2565 19.1639 26.293 19.0159 26.293V27.643C19.4119 27.643 19.7962 27.5355 20.1153 27.2744L19.2604 26.2296ZM19.0159 26.293H17.3839V27.643H19.0159V26.293ZM17.3839 26.293C17.2359 26.293 17.1722 26.2565 17.1393 26.2296L16.2844 27.2744C16.6036 27.5355 16.9879 27.643 17.3839 27.643V26.293ZM17.1393 26.2296C17.0713 26.1739 17.0286 26.1318 17.0039 26.1035C16.9775 26.0734 16.9838 26.073 16.9963 26.1021L15.7555 26.6339C15.8691 26.899 16.0853 27.1115 16.2844 27.2744L17.1393 26.2296ZM16.9779 26.0628L15.2259 22.6068L14.0218 23.2172L15.7738 26.6732L16.9779 26.0628ZM13.9489 22.912V30.352H15.2989V22.912H13.9489ZM13.9489 30.352C13.9489 30.3549 13.9486 30.354 13.9494 30.3502C13.9501 30.3463 13.9516 30.3413 13.9538 30.3361C13.956 30.3308 13.9581 30.3273 13.9592 30.3258C13.9602 30.3244 13.9592 30.3261 13.9546 30.3307L14.9092 31.2853C15.1597 31.0348 15.2989 30.7127 15.2989 30.352H13.9489ZM13.9546 30.3307C13.95 30.3353 13.9482 30.3363 13.9496 30.3353C13.9512 30.3343 13.9547 30.3321 13.9599 30.3299C13.9652 30.3277 13.9702 30.3263 13.9741 30.3255C13.9779 30.3248 13.9788 30.325 13.9759 30.325V31.675C14.3365 31.675 14.6586 31.5358 14.9092 31.2853L13.9546 30.3307ZM13.9759 30.325H9.63188V31.675H13.9759V30.325ZM9.63188 30.325C9.62897 30.325 9.62986 30.3248 9.63365 30.3255C9.63754 30.3263 9.64254 30.3277 9.64782 30.3299C9.65307 30.3321 9.65659 30.3343 9.65811 30.3353C9.65952 30.3363 9.65776 30.3353 9.65318 30.3307L8.69858 31.2853C8.94913 31.5358 9.27122 31.675 9.63188 31.675V30.325ZM9.65318 30.3307C9.64859 30.3261 9.64761 30.3244 9.64857 30.3258C9.64961 30.3273 9.65177 30.3308 9.65398 30.3361C9.6562 30.3413 9.65762 30.3463 9.65838 30.3502C9.65912 30.354 9.65888 30.3549 9.65888 30.352H8.30888C8.30888 30.7127 8.44803 31.0347 8.69858 31.2853L9.65318 30.3307ZM9.65888 30.352V14.848H8.30888V30.352H9.65888ZM9.65888 14.848C9.65888 14.8451 9.65912 14.846 9.65838 14.8498C9.65762 14.8537 9.6562 14.8587 9.65398 14.8639C9.65177 14.8692 9.64961 14.8727 9.64857 14.8742C9.64761 14.8756 9.64859 14.8739 9.65318 14.8693L8.69858 13.9147C8.44803 14.1652 8.30888 14.4873 8.30888 14.848H9.65888ZM9.65318 14.8693C9.65776 14.8647 9.65952 14.8637 9.65811 14.8647C9.65659 14.8657 9.65307 14.8679 9.64782 14.8701C9.64254 14.8723 9.63754 14.8737 9.63365 14.8745C9.62986 14.8752 9.62897 14.875 9.63188 14.875V13.525C9.27122 13.525 8.94913 13.6642 8.69858 13.9147L9.65318 14.8693ZM9.63188 14.875H14.0239V13.525H9.63188V14.875ZM14.0239 14.875C14.1974 14.875 14.3299 14.9311 14.4658 15.1758L15.6459 14.5202C15.3019 13.9009 14.7464 13.525 14.0239 13.525V14.875ZM14.4634 15.1714L17.6074 20.9314L18.7924 20.2846L15.6484 14.5246L14.4634 15.1714ZM18.7924 20.9314L21.9364 15.1714L20.7514 14.5246L17.6074 20.2846L18.7924 20.9314ZM41.8545 26.08H41.1795V26.755H41.8545V26.08ZM35.3745 26.08V26.755H36.0495V26.08H35.3745ZM35.3745 19.12H36.0495V18.445H35.3745V19.12ZM30.5265 18.928L30.0492 19.4053L30.0492 19.4053L30.5265 18.928ZM46.6545 18.928L47.1318 19.4053L47.1318 19.4053L46.6545 18.928ZM41.8545 19.12V18.445H41.1795V19.12H41.8545ZM41.8545 26.755H46.1985V25.405H41.8545V26.755ZM46.1985 26.755C46.2014 26.755 46.2005 26.7552 46.1967 26.7545C46.1928 26.7537 46.1878 26.7523 46.1826 26.7501C46.1773 26.7479 46.1738 26.7457 46.1723 26.7447C46.1709 26.7437 46.1726 26.7447 46.1772 26.7493L47.1318 25.7947C46.8813 25.5442 46.5592 25.405 46.1985 25.405V26.755ZM46.1772 26.7493C46.1818 26.7539 46.1828 26.7556 46.1818 26.7542C46.1808 26.7527 46.1786 26.7492 46.1764 26.7439C46.1742 26.7387 46.1728 26.7337 46.172 26.7298C46.1713 26.726 46.1715 26.7251 46.1715 26.728H47.5215C47.5215 26.3673 47.3823 26.0452 47.1318 25.7947L46.1772 26.7493ZM46.1715 26.728V30.352H47.5215V26.728H46.1715ZM46.1715 30.352C46.1715 30.3549 46.1713 30.354 46.172 30.3502C46.1728 30.3463 46.1742 30.3413 46.1764 30.3361C46.1786 30.3308 46.1808 30.3273 46.1818 30.3258C46.1828 30.3244 46.1818 30.3261 46.1772 30.3307L47.1318 31.2853C47.3823 31.0348 47.5215 30.7127 47.5215 30.352H46.1715ZM46.1772 30.3307C46.1726 30.3353 46.1709 30.3363 46.1723 30.3353C46.1738 30.3343 46.1773 30.3321 46.1826 30.3299C46.1878 30.3277 46.1928 30.3263 46.1967 30.3255C46.2005 30.3248 46.2014 30.325 46.1985 30.325V31.675C46.5592 31.675 46.8813 31.5358 47.1318 31.2853L46.1772 30.3307ZM46.1985 30.325H30.9825V31.675H46.1985V30.325ZM30.9825 30.325C30.9796 30.325 30.9805 30.3248 30.9843 30.3255C30.9882 30.3263 30.9932 30.3277 30.9984 30.3299C31.0037 30.3321 31.0072 30.3343 31.0087 30.3353C31.0101 30.3363 31.0084 30.3353 31.0038 30.3307L30.0492 31.2853C30.2998 31.5358 30.6218 31.675 30.9825 31.675V30.325ZM31.0038 30.3307C30.9992 30.3261 30.9982 30.3244 30.9992 30.3258C31.0002 30.3273 31.0024 30.3308 31.0046 30.3361C31.0068 30.3413 31.0082 30.3463 31.009 30.3502C31.0097 30.354 31.0095 30.3549 31.0095 30.352H29.6595C29.6595 30.7127 29.7987 31.0347 30.0492 31.2853L31.0038 30.3307ZM31.0095 30.352V26.728H29.6595V30.352H31.0095ZM31.0095 26.728C31.0095 26.7251 31.0097 26.726 31.009 26.7298C31.0082 26.7337 31.0068 26.7387 31.0046 26.7439C31.0024 26.7492 31.0002 26.7527 30.9992 26.7542C30.9982 26.7556 30.9992 26.7539 31.0038 26.7493L30.0492 25.7947C29.7987 26.0453 29.6595 26.3673 29.6595 26.728H31.0095ZM31.0038 26.7493C31.0084 26.7447 31.0101 26.7437 31.0087 26.7447C31.0072 26.7457 31.0037 26.7479 30.9984 26.7501C30.9932 26.7523 30.9882 26.7537 30.9843 26.7545C30.9805 26.7552 30.9796 26.755 30.9825 26.755V25.405C30.6218 25.405 30.2998 25.5442 30.0492 25.7947L31.0038 26.7493ZM30.9825 26.755H35.3745V25.405H30.9825V26.755ZM36.0495 26.08V19.12H34.6995V26.08H36.0495ZM35.3745 18.445H30.9825V19.795H35.3745V18.445ZM30.9825 18.445C30.9796 18.445 30.9805 18.4448 30.9843 18.4455C30.9882 18.4463 30.9932 18.4477 30.9984 18.4499C31.0037 18.4521 31.0072 18.4543 31.0087 18.4553C31.0101 18.4563 31.0084 18.4553 31.0038 18.4507L30.0492 19.4053C30.2998 19.6558 30.6218 19.795 30.9825 19.795V18.445ZM31.0038 18.4507C30.9992 18.4461 30.9982 18.4444 30.9992 18.4458C31.0002 18.4473 31.0024 18.4508 31.0046 18.4561C31.0068 18.4613 31.0082 18.4663 31.009 18.4702C31.0097 18.474 31.0095 18.4749 31.0095 18.472H29.6595C29.6595 18.8327 29.7987 19.1547 30.0492 19.4053L31.0038 18.4507ZM31.0095 18.472V14.848H29.6595V18.472H31.0095ZM31.0095 14.848C31.0095 14.8451 31.0097 14.846 31.009 14.8498C31.0082 14.8537 31.0068 14.8587 31.0046 14.8639C31.0024 14.8692 31.0002 14.8727 30.9992 14.8742C30.9982 14.8756 30.9992 14.8739 31.0038 14.8693L30.0492 13.9147C29.7987 14.1652 29.6595 14.4873 29.6595 14.848H31.0095ZM31.0038 14.8693C31.0084 14.8647 31.0101 14.8637 31.0087 14.8647C31.0072 14.8657 31.0037 14.8679 30.9984 14.8701C30.9932 14.8723 30.9882 14.8737 30.9843 14.8745C30.9805 14.8752 30.9796 14.875 30.9825 14.875V13.525C30.6218 13.525 30.2998 13.6642 30.0492 13.9147L31.0038 14.8693ZM30.9825 14.875H46.1985V13.525H30.9825V14.875ZM46.1985 14.875C46.2014 14.875 46.2005 14.8752 46.1967 14.8745C46.1928 14.8737 46.1878 14.8723 46.1826 14.8701C46.1773 14.8679 46.1738 14.8657 46.1723 14.8647C46.1709 14.8637 46.1726 14.8647 46.1772 14.8693L47.1318 13.9147C46.8813 13.6642 46.5592 13.525 46.1985 13.525V14.875ZM46.1772 14.8693C46.1818 14.8739 46.1828 14.8756 46.1818 14.8742C46.1808 14.8727 46.1786 14.8692 46.1764 14.8639C46.1742 14.8587 46.1728 14.8537 46.172 14.8498C46.1713 14.846 46.1715 14.8451 46.1715 14.848H47.5215C47.5215 14.4873 47.3823 14.1652 47.1318 13.9147L46.1772 14.8693ZM46.1715 14.848V18.472H47.5215V14.848H46.1715ZM46.1715 18.472C46.1715 18.4749 46.1713 18.474 46.172 18.4702C46.1728 18.4663 46.1742 18.4613 46.1764 18.4561C46.1786 18.4508 46.1808 18.4473 46.1818 18.4458C46.1828 18.4444 46.1818 18.4461 46.1772 18.4507L47.1318 19.4053C47.3823 19.1547 47.5215 18.8327 47.5215 18.472H46.1715ZM46.1772 18.4507C46.1726 18.4553 46.1709 18.4563 46.1723 18.4553C46.1738 18.4543 46.1773 18.4521 46.1826 18.4499C46.1878 18.4477 46.1928 18.4463 46.1967 18.4455C46.2005 18.4448 46.2014 18.445 46.1985 18.445V19.795C46.5592 19.795 46.8813 19.6558 47.1318 19.4053L46.1772 18.4507ZM46.1985 18.445H41.8545V19.795H46.1985V18.445ZM41.1795 19.12V26.08H42.5295V19.12H41.1795ZM68.8931 30.16L69.4548 29.7856L69.4392 29.7622L69.4217 29.7402L68.8931 30.16ZM68.8211 30.856L68.3438 30.3787L68.3438 30.3787L68.8211 30.856ZM61.4051 30.616L60.8804 31.0406L60.8813 31.0417L61.4051 30.616ZM57.2291 25.456L57.7538 25.0314L56.5541 23.549V25.456H57.2291ZM57.0371 30.808L56.5598 30.3307L56.5598 30.3307L57.0371 30.808ZM51.1811 30.808L50.7038 31.2853L50.7038 31.2853L51.1811 30.808ZM51.1811 14.392L50.7038 13.9147L50.7038 13.9147L51.1811 14.392ZM57.0371 14.392L56.5598 14.8693L56.5598 14.8693L57.0371 14.392ZM57.2291 19.36H56.5541V21.2881L57.7567 19.781L57.2291 19.36ZM61.0211 14.608L60.515 14.1614L60.5039 14.1739L60.4935 14.187L61.0211 14.608ZM68.0531 14.368L67.5406 14.8073L67.5744 14.8467L67.6138 14.8805L68.0531 14.368ZM68.1011 15.064L67.5826 14.6319L67.5792 14.636L68.1011 15.064ZM62.4131 22L61.8912 21.572L61.5458 21.9932L61.8845 22.4198L62.4131 22ZM68.3315 30.5344C68.3295 30.5314 68.3243 30.5225 68.32 30.5085C68.3156 30.4943 68.3141 30.4813 68.3141 30.472H69.6641C69.6641 30.2225 69.5903 29.9889 69.4548 29.7856L68.3315 30.5344ZM68.3141 30.472C68.3141 30.4538 68.3182 30.4294 68.3287 30.4054C68.3387 30.3827 68.3482 30.3743 68.3438 30.3787L69.2984 31.3333C69.5231 31.1086 69.6641 30.8138 69.6641 30.472H68.3141ZM68.3438 30.3787C68.3571 30.3654 68.3793 30.3489 68.4084 30.3373C68.4368 30.3259 68.457 30.325 68.4611 30.325V31.675C68.7721 31.675 69.0676 31.5642 69.2984 31.3333L68.3438 30.3787ZM68.4611 30.325H62.2691V31.675H68.4611V30.325ZM62.2691 30.325C62.0778 30.325 61.9929 30.269 61.929 30.1903L60.8813 31.0417C61.2333 31.475 61.7245 31.675 62.2691 31.675V30.325ZM61.9298 30.1914L57.7538 25.0314L56.7044 25.8806L60.8804 31.0406L61.9298 30.1914ZM56.5541 25.456V30.352H57.9041V25.456H56.5541ZM56.5541 30.352C56.5541 30.3549 56.5539 30.354 56.5546 30.3502C56.5554 30.3463 56.5568 30.3413 56.559 30.3361C56.5612 30.3308 56.5634 30.3273 56.5644 30.3258C56.5654 30.3244 56.5644 30.3261 56.5598 30.3307L57.5144 31.2853C57.765 31.0348 57.9041 30.7127 57.9041 30.352H56.5541ZM56.5598 30.3307C56.5552 30.3353 56.5535 30.3363 56.5549 30.3353C56.5564 30.3343 56.5599 30.3321 56.5652 30.3299C56.5705 30.3277 56.5755 30.3263 56.5794 30.3255C56.5831 30.3248 56.584 30.325 56.5811 30.325V31.675C56.9418 31.675 57.2639 31.5358 57.5144 31.2853L56.5598 30.3307ZM56.5811 30.325H51.6371V31.675H56.5811V30.325ZM51.6371 30.325C51.6342 30.325 51.6351 30.3248 51.6389 30.3255C51.6428 30.3263 51.6478 30.3277 51.6531 30.3299C51.6583 30.3321 51.6618 30.3343 51.6634 30.3353C51.6648 30.3363 51.663 30.3353 51.6584 30.3307L50.7038 31.2853C50.9544 31.5358 51.2765 31.675 51.6371 31.675V30.325ZM51.6584 30.3307C51.6538 30.3261 51.6529 30.3244 51.6538 30.3258C51.6549 30.3273 51.657 30.3308 51.6592 30.3361C51.6615 30.3413 51.6629 30.3463 51.6636 30.3502C51.6644 30.354 51.6641 30.3549 51.6641 30.352H50.3141C50.3141 30.7127 50.4533 31.0347 50.7038 31.2853L51.6584 30.3307ZM51.6641 30.352V14.848H50.3141V30.352H51.6641ZM51.6641 14.848C51.6641 14.8451 51.6644 14.846 51.6636 14.8498C51.6629 14.8537 51.6615 14.8587 51.6592 14.8639C51.657 14.8692 51.6549 14.8727 51.6538 14.8742C51.6529 14.8756 51.6538 14.8739 51.6584 14.8693L50.7038 13.9147C50.4533 14.1653 50.3141 14.4873 50.3141 14.848H51.6641ZM51.6584 14.8693C51.663 14.8647 51.6648 14.8637 51.6634 14.8647C51.6618 14.8657 51.6583 14.8679 51.6531 14.8701C51.6478 14.8723 51.6428 14.8737 51.6389 14.8745C51.6351 14.8752 51.6342 14.875 51.6371 14.875V13.525C51.2765 13.525 50.9544 13.6642 50.7038 13.9147L51.6584 14.8693ZM51.6371 14.875H56.5811V13.525H51.6371V14.875ZM56.5811 14.875C56.584 14.875 56.5831 14.8752 56.5794 14.8745C56.5755 14.8737 56.5705 14.8723 56.5652 14.8701C56.5599 14.8679 56.5564 14.8657 56.5549 14.8647C56.5535 14.8637 56.5552 14.8647 56.5598 14.8693L57.5144 13.9147C57.2639 13.6642 56.9418 13.525 56.5811 13.525V14.875ZM56.5598 14.8693C56.5644 14.8739 56.5654 14.8756 56.5644 14.8742C56.5634 14.8727 56.5612 14.8692 56.559 14.8639C56.5568 14.8587 56.5554 14.8537 56.5546 14.8498C56.5539 14.846 56.5541 14.8451 56.5541 14.848H57.9041C57.9041 14.4873 57.765 14.1652 57.5144 13.9147L56.5598 14.8693ZM56.5541 14.848V19.36H57.9041V14.848H56.5541ZM57.7567 19.781L61.5487 15.029L60.4935 14.187L56.7015 18.939L57.7567 19.781ZM61.5273 15.0546C61.6436 14.9228 61.7574 14.875 61.9091 14.875V13.525C61.3568 13.525 60.8787 13.7492 60.515 14.1614L61.5273 15.0546ZM61.9091 14.875H67.6931V13.525H61.9091V14.875ZM67.6931 14.875C67.6752 14.875 67.6427 14.8709 67.6057 14.8537C67.5691 14.8366 67.548 14.8159 67.5406 14.8073L68.5656 13.9287C68.345 13.6713 68.0396 13.525 67.6931 13.525V14.875ZM67.6138 14.8805C67.6052 14.8731 67.5845 14.852 67.5675 14.8154C67.5502 14.7785 67.5461 14.7459 67.5461 14.728H68.8961C68.8961 14.3815 68.7498 14.0761 68.4924 13.8555L67.6138 14.8805ZM67.5461 14.728C67.5461 14.7205 67.5475 14.7032 67.5555 14.681C67.5635 14.6585 67.5744 14.6417 67.5826 14.6319L68.6197 15.4961C68.8034 15.2756 68.8961 15.0097 68.8961 14.728H67.5461ZM67.5792 14.636L61.8912 21.572L62.9351 22.428L68.6231 15.492L67.5792 14.636ZM61.8845 22.4198L68.3645 30.5798L69.4217 29.7402L62.9417 21.5802L61.8845 22.4198ZM75.9158 30.184L76.5462 30.4251L76.5489 30.4181L76.5514 30.411L75.9158 30.184ZM69.9158 30.856L69.4033 31.2953L69.437 31.3347L69.4765 31.3685L69.9158 30.856ZM69.7718 30.472L69.1059 30.361L69.0968 30.4161V30.472H69.7718ZM69.7958 30.328L69.1569 30.1101L69.139 30.1624L69.1299 30.217L69.7958 30.328ZM75.0278 14.992L75.6666 15.2099L75.6699 15.2003L75.6729 15.1905L75.0278 14.992ZM75.3878 14.44L74.9337 13.9405L74.9337 13.9405L75.3878 14.44ZM83.4998 14.44L83.9538 13.9405L83.9538 13.9405L83.4998 14.44ZM83.8598 14.992L83.2146 15.1905L83.2176 15.2003L83.2209 15.2099L83.8598 14.992ZM89.0918 30.328L89.7576 30.217L89.7485 30.1624L89.7306 30.1101L89.0918 30.328ZM89.1158 30.472H89.7908V30.4161L89.7816 30.361L89.1158 30.472ZM88.9478 30.856L89.425 31.3333L89.4251 31.3333L88.9478 30.856ZM82.9718 30.184L82.3361 30.411L82.3386 30.4181L82.3413 30.4251L82.9718 30.184ZM82.3718 28.504L83.0074 28.277L82.8474 27.829H82.3718V28.504ZM76.5158 28.504V27.829H76.0401L75.8801 28.277L76.5158 28.504ZM79.4438 18.832L80.0826 18.6139L79.4438 16.7425L78.8049 18.6139L79.4438 18.832ZM77.7398 23.824L77.1009 23.6059L76.7961 24.499H77.7398V23.824ZM81.1478 23.824V24.499H82.0914L81.7866 23.6059L81.1478 23.824ZM75.2853 29.9429C75.2135 30.1306 75.1365 30.2169 75.0828 30.2574C75.0355 30.2932 74.9656 30.325 74.8358 30.325V31.675C75.2179 31.675 75.584 31.5708 75.8967 31.3346C76.203 31.1031 76.41 30.7814 76.5462 30.4251L75.2853 29.9429ZM74.8358 30.325H70.2998V31.675H74.8358V30.325ZM70.2998 30.325C70.3043 30.325 70.317 30.3261 70.3328 30.332C70.3483 30.3378 70.3559 30.3442 70.355 30.3435L69.4765 31.3685C69.7075 31.5666 69.9904 31.675 70.2998 31.675V30.325ZM70.4283 30.4167C70.4275 30.4159 70.4339 30.4235 70.4398 30.439C70.4457 30.4548 70.4468 30.4674 70.4468 30.472H69.0968C69.0968 30.7814 69.2052 31.0642 69.4033 31.2953L70.4283 30.4167ZM70.4376 30.583L70.4616 30.439L69.1299 30.217L69.1059 30.361L70.4376 30.583ZM70.4346 30.5459L75.6666 15.2099L74.3889 14.7741L69.1569 30.1101L70.4346 30.5459ZM75.6729 15.1905C75.6981 15.1087 75.7467 15.0259 75.8418 14.9395L74.9337 13.9405C74.6768 14.1741 74.4854 14.4593 74.3826 14.7935L75.6729 15.1905ZM75.8418 14.9395C75.862 14.9211 75.9234 14.875 76.1078 14.875V13.525C75.6841 13.525 75.2656 13.6389 74.9337 13.9405L75.8418 14.9395ZM76.1078 14.875H82.7798V13.525H76.1078V14.875ZM82.7798 14.875C82.9641 14.875 83.0256 14.9211 83.0457 14.9395L83.9538 13.9405C83.622 13.6389 83.2034 13.525 82.7798 13.525V14.875ZM83.0457 14.9395C83.1408 15.0259 83.1894 15.1087 83.2146 15.1905L84.5049 14.7935C84.4021 14.4593 84.2107 14.1741 83.9538 13.9405L83.0457 14.9395ZM83.2209 15.2099L88.4529 30.5459L89.7306 30.1101L84.4986 14.7741L83.2209 15.2099ZM88.4259 30.439L88.4499 30.583L89.7816 30.361L89.7576 30.217L88.4259 30.439ZM88.4408 30.472C88.4408 30.4538 88.4449 30.4294 88.4553 30.4054C88.4653 30.3827 88.4748 30.3743 88.4705 30.3787L89.4251 31.3333C89.6497 31.1086 89.7908 30.8138 89.7908 30.472H88.4408ZM88.4705 30.3787C88.4838 30.3654 88.5059 30.3489 88.5351 30.3373C88.5634 30.3259 88.5837 30.325 88.5878 30.325V31.675C88.8987 31.675 89.1942 31.5642 89.425 31.3333L88.4705 30.3787ZM88.5878 30.325H84.0518V31.675H88.5878V30.325ZM84.0518 30.325C83.9219 30.325 83.852 30.2932 83.8047 30.2574C83.751 30.2169 83.674 30.1306 83.6022 29.9429L82.3413 30.4251C82.4775 30.7814 82.6845 31.1031 82.9908 31.3346C83.3035 31.5708 83.6696 31.675 84.0518 31.675V30.325ZM83.6074 29.957L83.0074 28.277L81.7361 28.731L82.3361 30.411L83.6074 29.957ZM82.3718 27.829H76.5158V29.179H82.3718V27.829ZM75.8801 28.277L75.2801 29.957L76.5514 30.411L77.1514 28.731L75.8801 28.277ZM78.8049 18.6139L77.1009 23.6059L78.3786 24.0421L80.0826 19.0501L78.8049 18.6139ZM77.7398 24.499H81.1478V23.149H77.7398V24.499ZM81.7866 23.6059L80.0826 18.6139L78.8049 19.0501L80.5089 24.0421L81.7866 23.6059Z" fill="black"/>
</g>
<defs>
<filter id="filter0_d_26_343" x="4.98389" y="14.2" width="88.1319" height="24.8" filterUnits="userSpaceOnUse" color-interpolation-filters="sRGB">
<feFlood flood-opacity="0" result="BackgroundImageFix"/>
<feColorMatrix in="SourceAlpha" type="matrix" values="0 0 0 0 0 0 0 0 0 0 0 0 0 0 0 0 0 0 127 0" result="hardAlpha"/>
<feOffset dy="4"/>
<feGaussianBlur stdDeviation="2"/>
<feComposite in2="hardAlpha" operator="out"/>
<feColorMatrix type="matrix" values="0 0 0 0 0 0 0 0 0 0 0 0 0 0 0 0 0 0 0.25 0"/>
<feBlend mode="normal" in2="BackgroundImageFix" result="effect1_dropShadow_26_343"/>
<feBlend mode="normal" in="SourceGraphic" in2="effect1_dropShadow_26_343" result="shape"/>
</filter>
</defs>
</svg>
